<svg width="180" height="20" viewBox="0 0 180 20" fill="none" xmlns="http://www.w3.org/2000/svg">
<path d="M20.2355 0.171875C20.2355 6.67067 20.2355 13.1695 20.2355 19.7912C19.0177 19.7912 17.9389 19.7912 16.6851 19.7912C16.6851 15.7492 16.6851 7.18767 16.6851 7.18767L11.3276 19.6253L8.68482 19.6426C8.68482 19.6426 5.50827 11.1594 3.69846 7.59185C3.69846 11.6409 3.69846 15.6901 3.69846 19.8236C2.40871 19.8236 1.3675 19.8236 0 19.8236C8.0085e-09 13.2652 8.0085e-09 6.71852 8.0085e-09 0.171875C1.62383 0.171875 3.24767 0.171875 4.8715 0.171875C6.54486 4.74214 8.21821 9.3124 10.0722 14.3761C12.1147 9.25619 13.9267 4.71403 15.7387 0.171875C17.2376 0.171875 18.7366 0.171875 20.2355 0.171875Z" fill="white"/>
<path d="M157.664 0.171876C157.664 0.171876 157.664 13.1639 157.664 19.7872C156.532 19.7872 155.507 19.7872 154.234 19.7872C154.234 15.7008 154.234 7.10493 154.234 7.10493L149.114 19.708L145.981 19.7158L141.239 7.55712V19.7748C141.239 19.7748 138.836 19.7748 137.519 19.7748C137.519 17.6575 137.547 0.246335 137.547 0.246335L142.3 0.171877L147.557 14.383L153.168 0.171875L157.664 0.171876Z" fill="white"/>
<path d="M53.489 0.172276C54.8938 0.155727 56.3754 0.652128 57.4965 1.47946C60.4911 3.68913 61.8417 8.56575 60.6885 13.2725C59.7273 17.1956 57.084 19.5734 53.1318 19.8522C50.9602 20.0053 48.7717 19.9034 46.5907 19.9151C46.0349 19.9181 45.479 19.9155 44.6831 19.9155C44.6831 18.2048 44.6683 16.6126 44.6859 15.0208C44.7407 10.0712 44.8078 5.12179 44.8701 0.172275C47.7431 0.172276 50.616 0.172276 53.489 0.172276ZM48.7362 16.3972C51.4777 16.4736 54.2486 17.0695 56.0514 14.2058C57.4008 12.0621 57.2752 7.71448 55.878 5.71102C54.5493 3.80565 51.9306 3.5478 48.7362 3.96227C48.7362 8.06243 48.7362 12.164 48.7362 16.3972Z" fill="white"/>
<path d="M127.01 0.183913C129.653 0.487271 131.385 2.29624 131.82 5.17356C132.284 8.11842 131.434 10.5218 128.58 12.1731C129.847 14.6736 131.1 17.1442 132.504 19.9149C131.13 19.9149 128.052 19.8709 128.052 19.8709L124.581 12.8697L121.282 12.9387C121.282 12.9387 121.282 17.4089 121.282 19.7766C119.914 19.7766 118.702 19.7766 117.193 19.7766C117.193 13.2616 117.193 6.71723 117.193 0.172886C120.316 0.172886 126.904 0.171656 127.01 0.183913ZM121.341 9.80365C123.78 9.83615 126.103 10.2774 127.325 8.33948C127.847 7.47774 127.8 5.63516 127.235 4.80152C126.263 2.96928 123.487 3.54841 121.341 3.55732C121.341 5.68618 121.341 7.59325 121.341 9.80365Z" fill="white"/>
<path d="M38.8746 0.171876C38.8746 1.2559 38.8746 2.33992 38.8746 3.57661C36.0012 3.57661 33.2762 3.57661 30.3964 3.57661C30.3964 5.16695 30.3964 6.60861 30.3964 8.2809C32.9035 8.2809 35.4898 8.2809 38.2258 8.2809C38.2258 9.4251 38.2258 10.3445 38.2258 11.5114C35.6025 11.5114 33.0138 11.5114 30.337 11.5114C30.337 13.2166 30.337 14.6814 30.337 16.3907C33.0609 16.3907 35.8285 16.3907 38.7245 16.3907C38.7245 17.626 38.7245 18.6258 38.7245 19.7716C34.6897 19.7716 30.5991 19.7716 26.1338 19.7716C26.1338 13.2683 26.1338 6.72007 26.1338 0.171875C30.3807 0.171876 34.6277 0.171876 38.8746 0.171876Z" fill="white"/>
<path d="M106.326 0.171875L113.149 19.8459L109.071 19.8426L107.269 15.186H101.103L99.2026 19.9059L95.1934 19.8635L101.829 0.171878L106.326 0.171875ZM104.291 4.6264C104.135 4.6388 103.979 4.6512 103.823 4.6636C103.115 7.07336 102.407 9.48311 101.665 12.0085C103.412 12.0085 104.823 12.0085 106.512 12.0085C105.737 9.43366 105.014 7.03003 104.291 4.6264Z" fill="white"/>
<path d="M93.2105 0.171875C92.4738 2.55181 88.1879 15.6733 86.7807 19.8574C85.1691 19.8574 83.6822 19.8574 82.0106 19.8574C79.8747 13.3003 77.7364 6.73609 75.5981 0.171875C76.9722 0.171876 78.3462 0.171876 79.7202 0.171876C80.0775 1.51969 81.1617 5.00346 81.1617 5.00346L87.5685 4.99523C87.5685 4.99523 89.0698 0.361054 89.0885 0.171875C90.4625 0.171875 91.8365 0.171875 93.2105 0.171875ZM84.3716 16.2811C85.2576 13.3227 85.9957 10.858 86.7817 8.2332C85.0736 8.2332 83.6138 8.2332 81.9316 8.2332C82.7301 10.8669 83.4788 13.3362 84.3716 16.2811Z" fill="white"/>
<path d="M180 0.0179287L173.086 12.7589L173.172 19.8155H169.375L169.295 12.9519L162.911 0.172368H167.033L171.188 8.76722L175.685 0L180 0.0179287Z" fill="white"/>
<path d="M70.5103 0.171876C70.5103 0.171876 70.5811 2.46191 70.5866 3.60748C70.6118 8.94476 70.5977 14.2822 70.5977 19.7668C69.2606 19.7668 68.0553 19.7668 66.6045 19.7668C66.6045 13.2597 66.6045 6.71577 66.6045 0.171875C67.8536 0.171876 70.5103 0.171876 70.5103 0.171876Z" fill="white"/>
</svg>
